<svg width="137" height="111" viewBox="0 0 137 111" fill="none" xmlns="http://www.w3.org/2000/svg">
<rect width="115" height="22" fill="#2C6789"/>
<rect x="17" y="8" width="6" height="6" fill="white"/>
<rect x="54" y="8" width="6" height="6" fill="white"/>
<rect x="91" y="8" width="6" height="6" fill="white"/>
<rect y="25" width="115" height="22" fill="#2C6789"/>
<rect x="17" y="33" width="6" height="6" fill="white"/>
<rect x="54" y="33" width="6" height="6" fill="white"/>
<rect x="91" y="33" width="6" height="6" fill="white"/>
<rect y="50" width="115" height="22" fill="#2C6789"/>
<rect x="17" y="58" width="6" height="6" fill="white"/>
<rect x="54" y="58" width="6" height="6" fill="white"/>
<rect x="91" y="58" width="6" height="6" fill="white"/>
<mask id="path-13-outside-1_307_4578" maskUnits="userSpaceOnUse" x="58.5719" y="12.495" width="78" height="41" fill="black">
<rect fill="white" x="58.5719" y="12.495" width="78" height="41"/>
<path fill-rule="evenodd" clip-rule="evenodd" d="M60.5719 31.5388C60.5719 25.8711 70.9261 14.123 96.0227 14.504L96.0227 14.504C108.771 14.504 133.68 18.7057 133.68 33.5655C133.68 39.8046 121.121 50.9198 96.0227 50.6533C84.2058 49.96 60.5719 45.1666 60.5719 31.5388Z"/>
</mask>
<path fill-rule="evenodd" clip-rule="evenodd" d="M60.5719 31.5388C60.5719 25.8711 70.9261 14.123 96.0227 14.504L96.0227 14.504C108.771 14.504 133.68 18.7057 133.68 33.5655C133.68 39.8046 121.121 50.9198 96.0227 50.6533C84.2058 49.96 60.5719 45.1666 60.5719 31.5388Z" fill="#2C6789"/>
<path d="M96.0227 14.504L95.9923 16.5038L96.912 16.5177L97.5212 15.8286L96.0227 14.504ZM96.0227 14.504V12.504H95.1212L94.5241 13.1795L96.0227 14.504ZM133.68 33.5655H135.68V33.5655L133.68 33.5655ZM96.0227 50.6533L95.9055 52.6499L95.9534 52.6527L96.0014 52.6532L96.0227 50.6533ZM96.0227 14.504L96.053 12.5042C83.1921 12.309 73.9327 15.2199 67.822 19.0597C64.7717 20.9764 62.4925 23.1343 60.959 25.2637C59.4494 27.3599 58.5719 29.5606 58.5719 31.5388H60.5719H62.5719C62.5719 30.6831 62.9888 29.2899 64.2049 27.6012C65.397 25.9458 67.2749 24.1277 69.9502 22.4466C75.2907 19.0907 83.7567 16.318 95.9923 16.5038L96.0227 14.504ZM96.0227 14.504L94.5241 13.1795L94.5241 13.1795L96.0227 14.504L97.5212 15.8286L97.5212 15.8286L96.0227 14.504ZM133.68 33.5655L135.68 33.5655C135.68 24.7749 128.287 19.5465 120.329 16.5877C112.221 13.5729 102.555 12.504 96.0227 12.504V14.504V16.504C102.239 16.504 111.402 17.5359 118.935 20.3369C126.619 23.1939 131.68 27.4962 131.68 33.5655H133.68ZM96.0227 50.6533L96.0014 52.6532C108.842 52.7895 118.612 50.0164 125.243 46.2928C128.553 44.4337 131.115 42.3173 132.872 40.1728C134.602 38.0622 135.68 35.7609 135.68 33.5655H133.68H131.68C131.68 34.4896 131.188 35.9174 129.779 37.6374C128.397 39.3234 126.251 41.139 123.284 42.8052C117.36 46.1324 108.302 48.7836 96.0439 48.6534L96.0227 50.6533ZM60.5719 31.5388H58.5719C58.5719 39.7052 65.6446 44.7774 73.1158 47.8005C80.7674 50.8966 89.8618 52.2953 95.9055 52.6499L96.0227 50.6533L96.1398 48.6567C90.3666 48.318 81.7356 46.9733 74.6161 44.0925C67.3161 41.1387 62.5719 37.0001 62.5719 31.5388H60.5719Z" fill="white" mask="url(#path-13-outside-1_307_4578)"/>
<path d="M135.045 62.3191L135.007 62.4529C133.166 68.9075 122.714 80.9568 97.2768 80.6902C71.8404 80.9567 61.3717 68.908 59.5307 62.4529L59.4926 62.3191V36.5076L61.27 38.7049C65.7439 44.2348 72.6403 47.664 79.5405 49.7068C86.4273 51.7457 93.1984 52.368 97.2768 52.368C101.339 52.368 108.107 51.7458 114.994 49.7068C121.894 47.6639 128.794 44.2347 133.268 38.7049L135.045 36.5076V62.3191Z" fill="#2C6789" stroke="white" stroke-width="2"/>
<path d="M60.9858 65.1274C70.4263 80.9226 88.5245 80.976 96.9116 80.976C101.001 80.976 108.072 80.5516 115.096 78.5288C122.138 76.5008 128.979 72.9125 132.831 66.7006L134.68 63.7172V90.9272L134.642 91.062C132.798 97.5266 122.334 109.362 96.9009 109.092L95.9116 109.081V109.079C71.3168 108.985 60.9827 97.4329 59.1655 91.062L59.1274 90.9272V62.018L60.9858 65.1274Z" fill="#2C6789" stroke="white" stroke-width="2"/>
</svg>
