<svg xmlns="http://www.w3.org/2000/svg" width="54.913" height="54.695" viewBox="0 0 54.913 54.695"><defs><style>.a{fill:#a1d0e2;}.b{fill:rgba(77,77,77,0.1);}.c{fill:#eff8fc;}.d{fill:#0075a3;}.e{fill:#15c348;}.f{fill:rgba(77,77,77,0.2);}.g{fill:rgba(77,77,77,0.05);}.h{fill:#11a53c;font-size:5px;font-family:Lato-Bold, Lato;font-weight:700;letter-spacing:0.02em;}.i{letter-spacing:0.008em;}.j{letter-spacing:-0.02em;}</style></defs><g transform="translate(0.208)"><rect class="a" width="11.504" height="11.504" transform="translate(28.958 14.243)"/><path class="b" d="M11.8,0V11.8H0Z" transform="translate(28.725 14.166)"/><rect class="a" width="11.504" height="11.504" transform="translate(14.715 28.486)"/><rect class="a" width="11.504" height="11.504" transform="translate(14.715 42.729)"/><rect class="a" width="11.504" height="11.504" transform="translate(0.472 42.729)"/><rect class="c" width="11.504" height="10.956" transform="translate(0.472 29.034)"/><rect class="c" width="10.956" height="10.956" transform="translate(15.263 14.243)"/><rect class="c" width="10.956" height="10.956" transform="translate(28.958 0.548)"/><rect class="d" width="11.504" height="11.504" transform="translate(43.201 28.486)"/><rect class="d" width="11.504" height="11.504" transform="translate(43.201 42.729)"/><rect class="a" width="11.504" height="11.504" transform="translate(43.201 14.243)"/><rect class="e" width="11.504" height="11.504" transform="translate(28.958 28.486)"/><rect class="d" width="11.504" height="11.504" transform="translate(28.958 42.729)"/><rect class="a" width="11.504" height="11.504" transform="translate(43.201)"/><path class="b" d="M11.8,0V11.8H0Z" transform="translate(14.559 28.331)"/><path class="b" d="M11.8,0V11.8H0Z" transform="translate(14.559 42.89)"/><path class="f" d="M11.8,0V11.411H0Z" transform="translate(28.725 42.89)"/><path class="f" d="M11.8,0V11.411H0Z" transform="translate(42.89 42.89)"/><path class="f" d="M11.8,0V11.8H0Z" transform="translate(42.89 28.331)"/><path class="f" d="M11.8,0V11.8H0Z" transform="translate(28.725 28.331)"/><path class="b" d="M11.8,0V11.8H0Z" transform="translate(0 42.89)"/><path class="b" d="M11.8,0V11.8H0Z" transform="translate(42.89)"/><path class="b" d="M11.8,0V11.8H0Z" transform="translate(42.89 14.166)"/><path class="g" d="M11.411,0V11.411H0Z" transform="translate(28.725 0.393)"/><path class="g" d="M11.411,0V11.411H0Z" transform="translate(14.953 14.166)"/><path class="g" d="M11.411,0V11.411H0Z" transform="translate(0.394 28.725)"/><text class="h" transform="translate(-0.208 5.907)"><tspan x="0" y="0">DOI</tspan><tspan class="i" y="0"> </tspan><tspan class="j"><tspan x="0" y="6">URN</tspan></tspan></text></g></svg>