<svg xmlns="http://www.w3.org/2000/svg" width="63.066" height="66.288" viewBox="0 0 63.066 66.288"><defs><style>.a{fill:#a1d0e2;}.b{fill:rgba(67,67,67,0.17);}.c{fill:#0075a3;}.d{fill:rgba(75,75,75,0.18);}.e{fill:#15c348;}.f{fill:rgba(96,96,96,0.2);}.g{fill:rgba(83,83,83,0.18);}.h{fill:#004d79;}.i{fill:rgba(57,57,57,0.43);}.j,.l{fill:#fff;}.k{fill:none;}.l{stroke-linejoin:round;}.m,.n{stroke:none;}.n{fill:#0d6d93;}</style></defs><g transform="translate(-881 -202.5)"><rect class="a" width="14" height="24" transform="translate(894 240.5)"/><rect class="b" width="7" height="24" transform="translate(901 240.5)"/><rect class="c" width="14" height="46" transform="translate(912 218.5)"/><rect class="d" width="7" height="45" transform="translate(919 219.5)"/><path class="e" d="M0,0H14V36H0Z" transform="translate(930 228.5)"/><path class="f" d="M0,0H7V36.058H0Z" transform="translate(936.944 228.5)"/><circle class="a" cx="7" cy="7" r="7" transform="translate(898.5 202.5)"/><path class="g" d="M17.783.13a6.964,6.964,0,1,1,0,13.925C18.109,14.154,17.932.309,17.783.13Z" transform="translate(887.368 202.445)"/><circle class="h" cx="10" cy="10" r="10" transform="translate(881 216)"/><path class="i" d="M25.333,0A10.247,10.247,0,0,1,35.782,10.033,10.247,10.247,0,0,1,25.333,20.067C25.188,20.169,25.17.222,25.333,0Z" transform="translate(865.248 215.933)"/><circle class="j" cx="5.5" cy="5.5" r="5.5" transform="translate(900 204)"/><circle class="j" cx="8" cy="8" r="8" transform="translate(883 218)"/><g transform="translate(883.464 202.357)"><rect class="e" width="14.066" height="0.548" transform="translate(46.537 62.682)"/><rect class="e" width="14.066" height="1.096" transform="translate(46.537 63.778)"/><rect class="e" width="14.066" height="0.548" transform="translate(46.537 65.421)"/></g><g transform="translate(865.342 202.357)"><rect class="c" width="14.066" height="0.548" transform="translate(46.537 62.682)"/><rect class="c" width="14.066" height="1.096" transform="translate(46.537 63.778)"/><rect class="c" width="14.066" height="0.548" transform="translate(46.537 65.421)"/></g><g transform="translate(847.342 202.357)"><rect class="a" width="14.066" height="0.548" transform="translate(46.537 62.682)"/><rect class="a" width="14.066" height="1.096" transform="translate(46.537 63.778)"/><rect class="a" width="14.066" height="0.548" transform="translate(46.537 65.421)"/></g><g transform="translate(882.775 260.981)"><g class="k" transform="translate(0 1.155)"><path class="m" d="M0,0H4.782l1.87,2.469V6.652H0Z"/><path class="n" d="M 0.9999985694885254 0.9999985694885254 L 0.9999985694885254 5.651918888092041 L 5.651918888092041 5.651918888092041 L 5.651918888092041 2.805134773254395 L 4.28487491607666 0.9999985694885254 L 0.9999985694885254 0.9999985694885254 M -1.430511474609375e-06 -1.430511474609375e-06 L 4.78195858001709 -1.430511474609375e-06 L 6.651918888092041 2.469218730926514 L 6.651918888092041 6.651918888092041 L -1.430511474609375e-06 6.651918888092041 L -1.430511474609375e-06 -1.430511474609375e-06 Z"/></g><rect class="j" width="3" height="3" transform="translate(4.225 1.019)"/><g class="l" transform="translate(1.725 5.309) rotate(-47)"><path class="m" d="M 6.586463451385498 0.7202358245849609 L 1.628505229949951 0.7202358245849609 L 1.348092555999756 0.6019133329391479 L 1.618446469306946 0.4999958276748657 L 6.586463451385498 0.4999958276748657 L 6.586463451385498 0.7202358245849609 Z"/><path class="n" d="M 1.52733325958252 -4.172325134277344e-06 L 7.086463451385498 -4.172325134277344e-06 L 7.086463451385498 1.220235824584961 L 1.52733325958252 1.220235824584961 L 3.337860107421875e-06 0.57576584815979 L 1.52733325958252 -4.172325134277344e-06 Z"/></g></g></g></svg>