<svg xmlns="http://www.w3.org/2000/svg" width="142" height="131" viewBox="0 0 142 131">
  <g id="Group_28" data-name="Group 28" transform="translate(0.404 -0.295)">
    <rect id="Rectangle_94" data-name="Rectangle 94" width="2.02" height="62.123" transform="translate(38.827 26.234) rotate(-90)" fill="#a1e2db"/>
    <rect id="Rectangle_91" data-name="Rectangle 91" width="1" height="78" transform="translate(12.596 42.295)" fill="#a1e2db"/>
    <rect id="Rectangle_98" data-name="Rectangle 98" width="2" height="48" transform="translate(106.596 40.295)" fill="#a1e2db"/>
    <rect id="Rectangle_95" data-name="Rectangle 95" width="2.02" height="59.717" transform="translate(41.233 110.764) rotate(-90)" fill="#a1e2db"/>
    <rect id="Rectangle_99" data-name="Rectangle 99" width="2.02" height="59.717" transform="translate(41.233 124.907) rotate(-90)" fill="#a1e2db"/>
    <rect id="Rectangle_92" data-name="Rectangle 92" width="2" height="48" transform="translate(22.596 41.295)" fill="#acc738"/>
    <rect id="Rectangle_97" data-name="Rectangle 97" width="2" height="49" transform="translate(132.596 41.295)" fill="#acc738"/>
    <path id="Path_268" data-name="Path 268" d="M0,0H2.02V81.241H0Z" transform="translate(42.181 15.506) rotate(-90)" fill="#acc738"/>
    <rect id="Rectangle_96" data-name="Rectangle 96" width="2.02" height="59.717" transform="translate(41.233 95.714) rotate(-90)" fill="#acc738"/>
    <g id="Group_20" data-name="Group 20" transform="translate(99.916 88.71)">
      <rect id="Rectangle_84" data-name="Rectangle 84" width="42" height="43" transform="translate(-0.32 -0.415)" fill="#15c348"/>
      <rect id="Rectangle_101" data-name="Rectangle 101" width="4" height="13" transform="translate(28.68 29.585)" fill="#fff"/>
      <rect id="Rectangle_102" data-name="Rectangle 102" width="4" height="13" transform="translate(22.68 29.585)" fill="#fff"/>
      <rect id="Rectangle_110" data-name="Rectangle 110" width="21" height="43" transform="translate(20.68 -0.415)" fill="rgba(57,57,57,0.25)"/>
    </g>
    <g id="Group_21" data-name="Group 21" transform="translate(-0.404 0.295)">
      <rect id="Rectangle_81" data-name="Rectangle 81" width="42" height="42" fill="#004d79"/>
      <rect id="Rectangle_88" data-name="Rectangle 88" width="5" height="5" transform="translate(3 4)" fill="#fff"/>
      <rect id="Rectangle_89" data-name="Rectangle 89" width="5" height="5" transform="translate(9 4)" fill="#fff"/>
      <rect id="Rectangle_90" data-name="Rectangle 90" width="5" height="5" transform="translate(15 4)" fill="#fff"/>
      <rect id="Rectangle_108" data-name="Rectangle 108" width="20" height="42" transform="translate(22)" fill="rgba(62,62,62,0.38)"/>
    </g>
    <g id="Group_22" data-name="Group 22" transform="translate(99.43 0.295)">
      <rect id="Rectangle_85" data-name="Rectangle 85" width="19" height="42" transform="translate(23.166)" fill="#95bcca"/>
      <rect id="Rectangle_83" data-name="Rectangle 83" width="18" height="42" transform="translate(0.166)" fill="#a1d0e2"/>
      <rect id="Rectangle_109" data-name="Rectangle 109" width="6" height="42" transform="translate(12.166)" fill="rgba(96,96,96,0.18)"/>
    </g>
    <g id="Group_23" data-name="Group 23" transform="translate(0.082 88.71)">
      <rect id="Rectangle_82" data-name="Rectangle 82" width="43" height="12" transform="translate(-0.486 -0.415)" fill="#0075a3"/>
      <rect id="Rectangle_111" data-name="Rectangle 111" width="21" height="11" transform="translate(21.514 -0.415)" fill="rgba(88,88,88,0.37)"/>
      <rect id="Rectangle_86" data-name="Rectangle 86" width="43" height="11" transform="translate(-0.486 31.585)" fill="#0075a3"/>
      <rect id="Rectangle_113" data-name="Rectangle 113" width="21" height="11" transform="translate(21.514 31.585)" fill="#216b88"/>
      <rect id="Rectangle_87" data-name="Rectangle 87" width="43" height="14" transform="translate(-0.486 14.585)" fill="#0075a3"/>
      <rect id="Rectangle_112" data-name="Rectangle 112" width="21" height="14" transform="translate(21.514 14.585)" fill="#216b88"/>
    </g>
  </g>
</svg>
